<svg id="Layer_1" data-name="Layer 1" xmlns="http://www.w3.org/2000/svg" viewBox="0 0 281.59 281.59"><defs><style>.cls-1{fill:#fff;}</style></defs><title>HezarChareWeb</title><path class="cls-1" d="M140.79,7A133.78,133.78,0,0,0,46.21,235.4,133.78,133.78,0,0,0,235.4,46.19,132.92,132.92,0,0,0,140.79,7Zm48.53,16.61A126.46,126.46,0,0,1,230.07,50.8l4.57,4.53-5.38,3.53A166.38,166.38,0,0,1,209,70.18l-5.19,2.44-1.94-5.39A151.47,151.47,0,0,0,193,47v0a109,109,0,0,0-9.82-15.4l-11.9-15.48ZM74.74,137.32,75,131.9A221.55,221.55,0,0,1,81,87.37l1.34-5.48,5.36,1.76a170.8,170.8,0,0,0,106.13,0l5.37-1.76,1.33,5.48a223.88,223.88,0,0,1,6.09,44.53l.2,5.42Zm132.12,7-.2,5.41a223.68,223.68,0,0,1-6.09,44.54l-1.34,5.48-5.36-1.76a170.8,170.8,0,0,0-106.13,0l-5.36,1.76L81,194.22A221.16,221.16,0,0,1,75,149.68l-.21-5.41ZM195.48,70.21l1.74,5-5,1.68a161.4,161.4,0,0,1-51.43,8.32,161.62,161.62,0,0,1-51.42-8.32l-5-1.68,1.75-5C98.48,35,118.92,14,140.79,14S183.13,35,195.48,70.21ZM51.53,50.8A126.74,126.74,0,0,1,92.27,23.62l18-7.46L98.41,31.62A112.74,112.74,0,0,0,88.59,47a150.49,150.49,0,0,0-8.86,20.17l-1.92,5.41-5.19-2.44A162.31,162.31,0,0,1,52.35,58.86L47,55.33ZM14.31,131.73A126,126,0,0,1,39.52,64.55l3-4,4.09,2.79a169.18,169.18,0,0,0,25.24,14.1l4,1.79-1.09,4.25A227.56,227.56,0,0,0,68,132.28l-.17,5H13.9ZM42.49,221l-3-4a125.94,125.94,0,0,1-25.21-67.19l-.41-5.58H67.8l.17,5a229.09,229.09,0,0,0,6.79,48.76l1.09,4.24-4,1.8A169.23,169.23,0,0,0,46.6,218.23Zm49.78,37A126.74,126.74,0,0,1,51.53,230.8L47,226.29l5.36-3.55a159,159,0,0,1,20.29-11.31L77.81,209l1.92,5.39a153.06,153.06,0,0,0,8.86,20.19A113.59,113.59,0,0,0,98.41,250l11.81,15.46Zm-6.16-46.57-1.75-5,5-1.68a163.55,163.55,0,0,1,102.85,0l5,1.68-1.74,5c-12.35,35.21-32.8,56.23-54.69,56.23S98.48,246.6,86.11,211.39ZM230.05,230.8A126.48,126.48,0,0,1,189.32,258l-18,7.49L183.18,250A110.74,110.74,0,0,0,193,234.58h0a153.79,153.79,0,0,0,8.87-20.19l1.94-5.38,5.17,2.43a156.18,156.18,0,0,1,20.28,11.33l5.36,3.53Zm37.25-81A126.12,126.12,0,0,1,242.08,217l-3,4-4.1-2.76a169.92,169.92,0,0,0-25.26-14.12l-4-1.8,1.09-4.24a227.19,227.19,0,0,0,6.78-48.76l.17-5H267.7Zm-25.22-85.3a126.21,126.21,0,0,1,25.22,67.18l.4,5.59H213.78l-.17-5a226.94,226.94,0,0,0-6.78-48.76l-1.09-4.25,4-1.79A170,170,0,0,0,235,63.38l4.09-2.79Z"/></svg>